<svg width="38" height="39" viewBox="0 0 38 39" fill="none" xmlns="http://www.w3.org/2000/svg">
<path d="M16.1389 3.07304C17.0209 0.276015 20.9791 0.276016 21.8611 3.07304L22.2172 4.20222C22.8104 6.08339 25.0265 6.88997 26.6901 5.83023L27.6887 5.19411C30.1623 3.61841 33.1944 6.16269 32.0722 8.87229L31.6191 9.96617C30.8644 11.7885 32.0435 13.8309 33.9991 14.0884L35.173 14.243C38.0807 14.6259 38.768 18.524 36.1666 19.8783L35.1164 20.4251C33.3669 21.3359 32.9573 23.6584 34.2899 25.1127L35.0897 25.9857C37.071 28.148 35.0919 31.5759 32.2286 30.9413L31.0727 30.6851C29.1469 30.2582 27.3404 31.7741 27.4263 33.7447L27.4779 34.9276C27.6057 37.8576 23.8863 39.2114 22.1008 36.8847L21.38 35.9454C20.1792 34.3806 17.8208 34.3806 16.62 35.9454L15.8992 36.8847C14.1137 39.2114 10.3943 37.8576 10.5221 34.9276L10.5737 33.7447C10.6596 31.7741 8.85306 30.2582 6.92731 30.6851L5.77138 30.9413C2.90808 31.5759 0.928981 28.148 2.91027 25.9857L3.71012 25.1127C5.04266 23.6584 4.63314 21.3359 2.88356 20.4251L1.83337 19.8783C-0.768001 18.524 -0.0806683 14.6259 2.82702 14.243L4.00088 14.0884C5.95648 13.8309 7.13563 11.7885 6.38087 9.96617L5.92782 8.87228C4.80559 6.16269 7.83774 3.61841 10.3113 5.19411L11.3099 5.83023C12.9735 6.88997 15.1896 6.08338 15.7828 4.20222L16.1389 3.07304Z" fill="#66480C"/>
</svg>
